<svg xmlns="http://www.w3.org/2000/svg" viewBox="0 0 384 384" width="384" height="384">
  <defs>
    <linearGradient id="bgGrad" x1="0%" y1="0%" x2="100%" y2="100%">
      <stop offset="0%" style="stop-color:#0a1628;stop-opacity:1" />
      <stop offset="100%" style="stop-color:#0e1f3d;stop-opacity:1" />
    </linearGradient>
    <linearGradient id="tGrad" x1="0%" y1="0%" x2="100%" y2="100%">
      <stop offset="0%" style="stop-color:#F47B20;stop-opacity:1" />
      <stop offset="100%" style="stop-color:#e06010;stop-opacity:1" />
    </linearGradient>
    <filter id="glow">
      <feGaussianBlur stdDeviation="6" result="coloredBlur"/>
      <feMerge><feMergeNode in="coloredBlur"/><feMergeNode in="SourceGraphic"/></feMerge>
    </filter>
  </defs>
  <rect width="384" height="384" rx="60" fill="url(#bgGrad)"/>
  <g opacity="0.08" stroke="#3BBFBF" stroke-width="1.5" fill="none">
    <line x1="64" y1="0" x2="64" y2="384"/>
    <line x1="128" y1="0" x2="128" y2="384"/>
    <line x1="192" y1="0" x2="192" y2="384"/>
    <line x1="256" y1="0" x2="256" y2="384"/>
    <line x1="320" y1="0" x2="320" y2="384"/>
    <line x1="0" y1="64" x2="384" y2="64"/>
    <line x1="0" y1="128" x2="384" y2="128"/>
    <line x1="0" y1="192" x2="384" y2="192"/>
    <line x1="0" y1="256" x2="384" y2="256"/>
    <line x1="0" y1="320" x2="384" y2="320"/>
    <circle cx="64" cy="64" r="3" fill="#3BBFBF"/>
    <circle cx="128" cy="128" r="3" fill="#3BBFBF"/>
    <circle cx="256" cy="64" r="3" fill="#3BBFBF"/>
    <circle cx="320" cy="320" r="3" fill="#3BBFBF"/>
    <circle cx="64" cy="256" r="3" fill="#3BBFBF"/>
    <circle cx="320" cy="128" r="3" fill="#3BBFBF"/>
  </g>
  <ellipse cx="192" cy="204" rx="90" ry="76" fill="#F47B20" opacity="0.11" filter="url(#glow)"/>
  <rect x="97" y="116" width="190" height="40" rx="8" fill="url(#tGrad)" filter="url(#glow)"/>
  <rect x="173" y="156" width="40" height="118" rx="8" fill="url(#tGrad)"/>
  <circle cx="288" cy="270" r="12" fill="#2E6DA4" opacity="0.6"/>
  <circle cx="96" cy="116" r="6" fill="#3BBFBF" opacity="0.4"/>
</svg>
